<svg xmlns="http://www.w3.org/2000/svg" id="Layer_1" data-name="Layer 1" viewBox="0 0 350 350"><defs><style>      .cls-1 {        stroke-linecap: round;        stroke-linejoin: round;      }      .cls-1, .cls-2 {        fill: none;        stroke: #739ab9;        stroke-width: 4px;      }      .cls-2 {        stroke-miterlimit: 10;      }    </style></defs><path class="cls-1" d="M250.09,71.57c.05-1.77-1.06-3.42-2.54-4.4s-3.27-1.36-5.03-1.53c-2.45-.24-5.08-.06-7.11,1.32s-3.2,4.26-2.02,6.42c1.19,2.17,4.05,2.74,6.53,2.67,3.61-.1,7.4-1.18,9.75-3.92,1.09-1.27,1.79-2.81,2.49-4.33,3.13-6.85,6.32-13.96,6.41-21.5,2.49,4.9,8.01,8.09,13.49,7.81"></path><path class="cls-1" d="M272.97,122.63c-.78-3-3.99-5.16-7.06-4.73-4.52.63-8.25,8.49-2.47,10.23,1.53.46,3.21.15,4.66-.52,3.57-1.65,5.75-5.42,5.76-9.29.02-4.79.12-9.82-1.61-14.37,3.36,2.09,7.47,2.94,11.38,2.35"></path><path class="cls-1" d="M83.46,126.28c-4.33-3.35-14.15-1.86-16.49,3.08-.48,1.01-.77,2.16-.48,3.24.67,2.47,3.81,3.17,6.37,3.22,2.74.05,5.65-.19,7.88-1.8,4.08-2.94,4.12-9.05,2.66-13.87-2.21-7.29-6.76-13.6-11.24-19.77,4.83,3.14,10.71,4.63,16.44,4.16"></path><circle class="cls-2" cx="167" cy="218.33" r="91.92"></circle><path class="cls-2" d="M77.48,198.27c60.13,1.76,119.25,2.29,179.44,1.66"></path><path class="cls-2" d="M155.43,127.13c-7.21,3.16-13.53,8.21-18.38,13.34-22.99,24.31-24.96,56.2-25.07,86.07-.06,16,.23,32.26,6.5,47.55,6.27,15.28,19.42,29.18,38.78,35.65"></path><path class="cls-2" d="M175.37,309.74c8.53-4.49,17.15-8.21,24.48-14.65,7.08-6.23,12.85-13.97,16.66-22.61,5.38-12.21,6.88-25.76,7.45-39.1.99-23.12-.03-47.75-8.98-69.4-5.79-14.01-16.01-27.27-31.27-35.94"></path><path class="cls-2" d="M172.33,126.64c1.45,2.32,2.9,4.64,4.18,7.05,8.31,15.6,9.15,33.98,9.46,51.65.36,21.2.2,42.48-2.62,63.49-2.82,21.02-4.26,41.66-14.14,60.42.38.64-6.83.67-7.16,0-17.15-34.4-22.62-73.04-19.04-111.24,1.91-20.4,6-40.91,13.38-60.06,1.81-4.69,3.09-7.3,6.76-10.82"></path><path class="cls-2" d="M76.88,234.98c64.14,3.36,115.81,2.79,180.04,2.47"></path><path class="cls-2" d="M91.07,270.45c51.84-1.67,98.76-1.32,150.54,1.61"></path><path class="cls-2" d="M92.45,164.56c53.59-1.07,94.32-.53,147.92-1.6"></path><path class="cls-2" d="M148.98,127.82c2.21-6.36,3.26-13.13,3.08-19.86,10.7.19,21.4.38,32.1.57-.52,6.71.6,13.53,3.23,19.73"></path><path class="cls-2" d="M167.26,39.76c-.08,11.38-.16,22.76-.62,34.13-.44,11.11,2.32,23.02,1.17,34.08"></path></svg>